<?xml version="1.0" standalone="no"?>
<!DOCTYPE svg PUBLIC "-//W3C//DTD SVG 20010904//EN"
 "http://www.w3.org/TR/2001/REC-SVG-20010904/DTD/svg10.dtd">
<svg version="1.0" xmlns="http://www.w3.org/2000/svg"
 width="64.000000pt" height="64.000000pt" viewBox="0 0 64.000000 64.000000"
 preserveAspectRatio="xMidYMid meet">

<g transform="translate(0.000000,64.000000) scale(0.100000,-0.100000)"
fill="#000000" stroke="none">
<path d="M127 522 c-14 -15 -17 -42 -17 -160 0 -129 2 -144 20 -162 11 -11 31
-20 45 -20 20 0 25 5 25 24 0 15 -7 26 -20 29 -25 6 -26 27 -1 34 15 4 19 17
23 81 5 69 8 78 37 104 27 25 39 28 96 28 56 0 65 3 65 18 0 36 -20 42 -140
42 -101 0 -119 -3 -133 -18z"/>
<path d="M257 422 c-14 -15 -17 -41 -17 -156 0 -133 1 -138 25 -162 24 -24 29
-25 142 -22 114 3 118 4 121 25 2 13 -1 23 -7 23 -14 0 -14 33 -1 46 7 7 10
59 8 135 l-3 124 -126 3 c-112 2 -127 1 -142 -16z m193 -77 c0 -13 -11 -15
-62 -13 -38 2 -63 8 -66 16 -3 9 14 12 62 12 53 0 66 -3 66 -15z m0 -195 c0
-18 -7 -20 -74 -20 -72 0 -94 8 -81 30 3 6 40 10 81 10 67 0 74 -2 74 -20z"/>
</g>
</svg>
