<?xml version="1.0" standalone="no"?>
<!DOCTYPE svg PUBLIC "-//W3C//DTD SVG 20010904//EN"
 "http://www.w3.org/TR/2001/REC-SVG-20010904/DTD/svg10.dtd">
<svg version="1.0" xmlns="http://www.w3.org/2000/svg"
 width="64.000000pt" height="64.000000pt" viewBox="0 0 64.000000 64.000000"
 preserveAspectRatio="xMidYMid meet">

<g transform="translate(0.000000,64.000000) scale(0.100000,-0.100000)"
fill="#000000" stroke="none">
<path d="M257 520 c-37 -29 -52 -81 -37 -126 13 -39 60 -74 100 -74 40 0 87
35 100 74 24 73 -27 146 -100 146 -22 0 -48 -8 -63 -20z"/>
<path d="M246 295 c-45 -16 -90 -56 -106 -96 -10 -24 -10 -33 4 -54 16 -24 22
-25 104 -25 l88 0 -4 35 c-6 47 3 78 33 113 21 25 23 31 9 36 -26 10 -87 6
-128 -9z"/>
<path d="M443 266 c-4 -8 -19 -16 -33 -18 -19 -2 -24 -8 -22 -24 2 -12 -4 -24
-13 -27 -19 -8 -20 -33 0 -41 8 -3 14 -15 12 -28 -1 -18 3 -23 22 -23 14 0 26
-6 29 -13 5 -17 39 -15 46 3 3 8 15 14 28 12 19 -2 23 2 21 21 -2 13 4 25 12
28 19 8 19 31 1 41 -8 4 -14 17 -13 28 1 14 -5 21 -23 23 -14 2 -29 10 -33 18
-4 8 -12 14 -17 14 -5 0 -13 -6 -17 -14z m42 -91 c0 -23 -34 -33 -45 -14 -13
20 1 40 24 37 13 -2 21 -10 21 -23z"/>
</g>
</svg>
